# xmcd
#
# Track frame offsets:
#	182
#	19532
#	35470
#	47432
#	55832
#	94807
#	108557
#	124257
#	138532
#	151432
#	169057
#
# Disc length: 2422 seconds
#
# Revision: 2
# Processed by: cddbd v1.5.2PL0 Copyright (c) Steve Scherf et al.
# Submitted via: audiograbber 1.83.01
#
DISCID=8d09740b
DTITLE=New Riders Of The Purple Sage - Gypsy Cowboy
DYEAR=1972
DGENRE=Country Rock
TTITLE0=Gypsy Cowboy
TTITLE1=Whiskey
TTITLE2=Groupie
TTITLE3=Sutter's Mill
TTITLE4=Death And Destruction
TTITLE5=Linda
TTITLE6=On My Way Back Home
TTITLE7=Superman
TTITLE8=She's No Angel
TTITLE9=Long Black Veil
TTITLE10=Sailin'
EXTD=
EXTT0=
EXTT1=
EXTT2=
EXTT3=
EXTT4=
EXTT5=
EXTT6=
EXTT7=
EXTT8=
EXTT9=
EXTT10=
PLAYORDER=
